<?xml version="1.0" encoding="utf-8"?>
<!-- Generator: Adobe Illustrator 22.0.1, SVG Export Plug-In . SVG Version: 6.00 Build 0)  -->
<svg version="1.1" baseProfile="tiny" xmlns="http://www.w3.org/2000/svg" xmlns:xlink="http://www.w3.org/1999/xlink" x="0px"
	 y="0px" width="556.7px" height="378.9px" viewBox="0 0 556.7 378.9" xml:space="preserve">
<g id="Layer_2">
	<g>
		<path fill-rule="evenodd" d="M532.9,79.6h-6h-6h-14h-20h-20h-10h-10h-10h-20h-20h-20h-20h-20h-20h-20h-20h-20h-20h-20h-14
			c-3.3,0-6-2.7-6-6v-7v-7v-3v-4v-5c0-4.4,3.6-8,8-8h5h3h1h6h4h5c4.4,0,8,3.6,8,8v8c0,2.2,1.8,4,4,4h12c2.2,0,4-1.8,4-4v-12
			c0-2.2-1.8-4-4-4h-8c-4.4,0-8-3.6-8-8v-9c0-1.7-1.3-3-3-3h-10h-4h-6h-1h-3h-9h-1c-1.7,0-3,1.3-3,3v1v8c0,4.4-3.6,8-8,8h-9
			c-1.7,0-3,1.3-3,3v10v4v3v7v7c0,3.3-2.7,6-6,6h-14h-20h-20h-20h-20h-20h-14h-6h-4h-2h-10c-2.2,0-4,1.8-4,4v12c0,2.2,1.8,4,4,4h10
			h2h4h6h14h20h14c3.3,0,6,2.7,6,6v14v14c0,3.3-2.7,6-6,6h-14h-14h-6h-6c-2.2,0-4,1.8-4,4v8c0,4.4-3.6,8-8,8h-8c-2.2,0-4,1.8-4,4v10
			v2v8v2v10c0,2.2,1.8,4,4,4h8c4.4,0,8,3.6,8,8v8c0,2.2,1.8,4,4,4h10c3.3,0,6,2.7,6,6v8v6v4v2v10c0,2.2,1.8,4,4,4h8c4.4,0,8,3.6,8,8
			v8c0,2.2,1.8,4,4,4h10h2h10c2.2,0,4-1.8,4-4v-12c0-2.2-1.8-4-4-4h-10h-2h-6c-4.4,0-8-3.6-8-8v-6v-2v-4v-6v-8c0-3.3,2.7-6,6-6h8h6
			h6c2.2,0,4-1.8,4-4v-12c0-2.2-1.8-4-4-4h-6h-6h-14h-14h-6h-4h-2h-6c-4.4,0-8-3.6-8-8v-6v-2v-8v-2v-6c0-4.4,3.6-8,8-8h2h6h14h14h6
			h4h2h10c2.2,0,4-1.8,4-4v-10v-2v-4v-6v-14v-14c0-3.3,2.7-6,6-6h8c3.3,0,6,2.7,6,6v14v14v6v4v2v10c0,2.2,1.8,4,4,4h12
			c2.2,0,4-1.8,4-4v-10v-2v-4v-6v-14v-14c0-3.3,2.7-6,6-6h8c3.3,0,6,2.7,6,6v14v20v20v20v20v20v20v14v6v4v2v10c0,2.2,1.8,4,4,4h12
			c2.2,0,4-1.8,4-4v-10v-2v-4v-6v-14v-20v-20v-20v-20v-20v-20v-14c0-3.3,2.7-6,6-6h14h20h20h14c3.3,0,6,2.7,6,6v14v20v20v20v20v20
			v20v14c0,3.3-2.7,6-6,6h-6.1c-4.1,0-7.5-3.1-7.9-7v-9c0-2.2-1.8-4-4-4h-8.1c-4.1,0-7.5-3.1-7.9-7v-7v-2v-4v-6v-8c0-3.3,2.7-6,6-6
			h10c2.2,0,4-1.8,4-4v-12c0-2.2-1.8-4-4-4h-10h-2h-8h-2h-10c-2.2,0-4,1.8-4,4v10v2v4v6v8v6v4v2v10c0,2.2,1.8,4,4,4h7.9
			c4.4,0,8,3.6,8,8c0-0.3,0-0.6,0.1-1v9c0,2.2,1.8,4,4,4h7.9c4.4,0,8,3.6,8,8c0-0.3,0-0.6,0.1-1v9c0,2.2,1.8,4,4,4h10h2h8h2h10
			c2.2,0,4-1.8,4-4v-10v-2v-4v-6v-14v-20v-20v-20v-20v-20v-20v-14c0-3.3,2.7-6,6-6h14h20h20h14c3.3,0,6,2.7,6,6v14v20v20v14
			c0,3.3-2.7,6-6,6h-4h-4h-6h-4h-2h-10c-2.2,0-4,1.8-4,4v8c0,4.4-3.6,8-8,8h-8c-2.2,0-4,1.8-4,4v10v2v4v6v8v6v4v2v10
			c0,2.2,1.8,4,4,4h8c4.4,0,8,3.6,8,8v8c0,2.2,1.8,4,4,4h10h2h4h6h4h10h4h6h6c2.2,0,4-1.8,4-4v-10v-2v-4v-6v-14v-20v-20v-20v-20v-20
			v-20v-14c0-3.3,2.7-6,6-6h8c3.3,0,6,2.7,6,6v14v20v20v20v20v20v20v14v6v4v2v10c0,2.2,1.8,4,4,4h12c2.2,0,4-1.8,4-4v-10v-2v-4v-6
			v-14v-20v-20v-20v-20v-20v-20v-14c0-3.3,2.7-6,6-6h4h10h10h20h20h4c3.3,0,6,2.7,6,6v14v20v20v14c0,3.3-2.7,6-6,6h-4h-10h-14h-6h-4
			h-2h-10c-2.2,0-4,1.8-4,4v10v2v4v6v14v14v6v4v2v10c0,2.2,1.8,4,4,4h7.9c4.4,0,8,3.6,8,8c0-0.3,0-0.6,0.1-1v9c0,2.2,1.8,4,4,4h10h2
			h4h6h4h10h4h6h6c2.2,0,4-1.8,4-4v-10v-2v-4v-6v-14v-20v-20v-20v-20v-20v-20v-14v-6v-4v-2v-10C536.9,81.4,535.1,79.6,532.9,79.6z
			 M376.9,239.6v14c0,3.3-2.7,6-6,6h-4h-4h-6h-4h-2h-6c-4.4,0-8-3.6-8-8v-6v-2v-4v-6v-8v-6v-4v-2v-6c0-4.4,3.6-8,8-8h6h2h4h6h4h4
			c3.3,0,6,2.7,6,6v14V239.6z M516.9,239.6v14c0,3.3-2.7,6-6,6h-4h-4h-6h-4h-2h-6.1c-4.1,0-7.5-3.1-7.9-7v-7v-2v-4v-6v-14v-14
			c0-3.3,2.7-6,6-6h14h10h4c3.3,0,6,2.7,6,6v14V239.6z"/>
		<path fill-rule="evenodd" d="M422.9,299.6h-6h-6h-14h-20h-14h-6h-6c-2.2,0-4,1.8-4,4v12c0,2.2,1.8,4,4,4h6h6h14h20h14h6h6
			c2.2,0,4-1.8,4-4v-12C426.9,301.4,425.1,299.6,422.9,299.6z"/>
		<path fill-rule="evenodd" d="M532.9,299.6h-12c-0.7,0-1.4,0.2-2,0.6v-0.6h-18h-18h-10h-8h-4c-2.2,0-4,1.8-4,4v12c0,2.2,1.8,4,4,4
			h4h8h10h18h18V319c0.6,0.3,1.3,0.6,2,0.6h12c2.2,0,4-1.8,4-4v-12C536.9,301.4,535.1,299.6,532.9,299.6z"/>
		<path fill-rule="evenodd" d="M532.9,329.6h-12c-0.7,0-1.4,0.2-2,0.6v-0.6h-18h-18h-10h-8h-4c-2.2,0-4,1.8-4,4v12c0,2.2,1.8,4,4,4
			h4h8h10h18h18V349c0.6,0.3,1.3,0.6,2,0.6h12c2.2,0,4-1.8,4-4v-12C536.9,331.4,535.1,329.6,532.9,329.6z"/>
	</g>
</g>
</svg>
