<?xml version="1.0" encoding="utf-8"?>
<!-- Generator: Adobe Illustrator 19.2.1, SVG Export Plug-In . SVG Version: 6.00 Build 0)  -->
<svg version="1.1" id="Layer_1" xmlns="http://www.w3.org/2000/svg" xmlns:xlink="http://www.w3.org/1999/xlink" x="0px" y="0px"
	 viewBox="0 0 800 600" style="enable-background:new 0 0 800 600;" xml:space="preserve">
<style type="text/css">
	.st0{fill:#A4CD39;}
</style>
<g>
	<polygon class="st0" points="514.2,543.5 482.4,513 323.1,513 291.3,543.5 323.1,574 482.4,574 	"/>
	<polygon class="st0" points="521,310.3 490,342.1 490,501.3 521,533.2 552,501.3 552,342.1 	"/>
	<polygon class="st0" points="281.5,310.3 248,342.1 248,501.3 281.5,533.2 315,501.3 315,342.1 	"/>
	<polygon class="st0" points="513.5,302.5 481.6,269 322.4,269 290.5,302.5 322.4,336 481.6,336 	"/>
	<polygon class="st0" points="521,71.3 490,103.2 490,262.4 521,294.3 552,262.4 552,103.2 	"/>
	<polygon class="st0" points="281.5,71.3 248,103.2 248,262.4 281.5,294.3 315,262.4 315,103.2 	"/>
	<polygon class="st0" points="514.2,60.5 482.4,27 323.1,27 291.3,60.5 323.1,94 482.4,94 	"/>
</g>
</svg>
